<svg width="20" height="20" viewBox="0 0 20 20" fill="none" xmlns="http://www.w3.org/2000/svg">
<path d="M13.3325 10C13.3325 11.8409 11.8405 13.3336 9.9996 13.3336C8.15865 13.3336 6.66586 11.8409 6.66586 10C6.66586 8.15913 8.15865 6.6664 9.9996 6.6664C11.8405 6.6664 13.3325 8.15913 13.3325 10ZM15.1347 10C15.1347 7.16397 12.8357 4.86511 9.9996 4.86511C7.16346 4.86511 4.86449 7.16397 4.86449 10C4.86449 12.836 7.16346 15.1349 9.9996 15.1349C12.8357 15.1349 15.1347 12.836 15.1347 10ZM5.8613 15.3384C5.8613 14.6761 5.32412 14.1381 4.66093 14.1381C3.99854 14.1381 3.46056 14.6761 3.46056 15.3384C3.46056 16.0008 3.99774 16.538 4.66093 16.538C5.32412 16.538 5.8613 16.0008 5.8613 15.3384ZM14.0401 1.86026C15.0151 1.90469 15.5451 2.06704 15.8972 2.20436C16.3642 2.38611 16.697 2.60258 17.0475 2.95234C17.3973 3.3021 17.6146 3.6349 17.7955 4.10178C17.9329 4.45396 18.0952 4.98384 18.1397 5.9588C18.1881 7.01292 18.1978 7.32956 18.1978 10C18.1978 12.6704 18.1873 12.9863 18.1397 14.0412C18.0952 15.0162 17.9321 15.5452 17.7955 15.8982C17.6138 16.3651 17.3973 16.6979 17.0475 17.0485C16.6978 17.3982 16.365 17.6155 15.8972 17.7964C15.5451 17.9338 15.0151 18.0961 14.0401 18.1405C12.986 18.189 12.6693 18.1987 9.9996 18.1987C7.32905 18.1987 7.01321 18.1882 5.95824 18.1405C4.98324 18.0961 4.45414 17.933 4.10113 17.7964C3.63423 17.6155 3.30142 17.3982 2.95084 17.0485C2.60107 16.6987 2.38459 16.3651 2.20284 15.8982C2.06551 15.546 1.90314 15.0162 1.85872 14.0412C1.81025 12.9863 1.80056 12.6704 1.80056 10C1.80056 7.33037 1.81025 7.01373 1.85872 5.9588C1.90314 4.98384 2.06632 4.45396 2.20284 4.10178C2.38459 3.6349 2.60107 3.3021 2.95084 2.95234C3.30062 2.60258 3.63423 2.38611 4.10113 2.20436C4.45333 2.06704 4.98324 1.90469 5.95824 1.86026C7.0124 1.81179 7.32905 1.8021 9.9996 1.8021C12.6693 1.8021 12.986 1.81179 14.0401 1.86026ZM14.1225 19.9394C15.1872 19.891 15.9142 19.7221 16.5499 19.475C17.2075 19.2197 17.7649 18.8772 18.3214 18.3215C18.8772 17.7658 19.2197 17.2084 19.4749 16.5501C19.7221 15.9144 19.8909 15.1874 19.9394 14.1228C19.9887 13.0565 20 12.7157 20 10C20 7.28433 19.9887 6.94346 19.9394 5.87722C19.8909 4.8126 19.7221 4.08562 19.4749 3.44992C19.2197 2.79241 18.878 2.23425 18.3214 1.67851C17.7657 1.12278 17.2083 0.781099 16.5499 0.525042C15.9134 0.277868 15.1872 0.109047 14.1225 0.0605831C13.0555 0.0121174 12.7154 0 9.9996 0C7.28301 0 6.94293 0.0113087 5.87665 0.0605831C4.81199 0.109047 4.08498 0.277868 3.44925 0.525042C2.79171 0.781099 2.23434 1.12278 1.67777 1.67851C1.12201 2.23425 0.780321 2.79241 0.524252 3.44992C0.277069 4.08562 0.107435 4.8126 0.0597744 5.87722C0.0113087 6.94427 0 7.28433 0 10C0 12.7157 0.0113087 13.0565 0.0597744 14.1228C0.108242 15.1874 0.277069 15.9144 0.524252 16.5501C0.780321 17.2076 1.12201 17.7649 1.67777 18.3215C2.23353 18.8772 2.79171 19.2197 3.44844 19.475C4.08498 19.7221 4.81199 19.8918 5.87584 19.9394C6.94212 19.9879 7.28301 20 9.99879 20C12.7154 20 13.0555 19.9887 14.1225 19.9394Z" fill="white"/>
</svg>
